<?xml version="1.0" encoding="UTF-8"?>
<svg xmlns="http://www.w3.org/2000/svg" id="Capa_1" viewBox="0 0 407.05 449.34">
  <defs>
    <style>.cls-1{fill:#f09d23;}.cls-1,.cls-2{stroke-width:0px;}.cls-2{fill:#44704a;}</style>
  </defs>
  <path class="cls-1" d="m145.24,89.66s46.45,30.16,127.88-9.05c44.57-21.46,109.18-17.47,82.63,70.37,109.78-114.08,28.35-184.64-102.66-98.54-50.67,33.3-83.6,40.06-107.85,37.22Z"></path>
  <path class="cls-2" d="m300.58,333.47c-55.49,52.83-77.98,64.06-115.3,75.38-5.24,1.59-25.62,8.36-44.14-1.49C69.03,369.05,30.28,181.62,56.6,105.72c33.74-97.29,86.93-22.92,136.36-34.68C147.06,52.21,127.21-30.79,53.72,12.2-21.16,56-25.93,272.7,91.95,418.02c34.46,42.48,90.53,40.22,135.31,2.49,31.58-26.61,59.23-63.77,73.31-87.04Z"></path>
  <path class="cls-1" d="m268.64,402.38c26.51,38.57,51.98,65.98,106.05-70.76h0c-44.15,56.44-56.4,81.69-106.68,69.76"></path>
</svg>
