<?xml version="1.0" encoding="UTF-8"?>
<svg id="Capa_1" data-name="Capa 1" xmlns="http://www.w3.org/2000/svg" viewBox="0 0 220.14 236.75">
  <defs>
    <style>
      .cls-1 {
        fill: #44714b;
      }

      .cls-1, .cls-2 {
        stroke-width: 0px;
      }

      .cls-2 {
        fill: #f19f24;
      }
    </style>
  </defs>
  <path class="cls-2" d="m76.52,47.24s24.47,15.89,67.37-4.77c23.48-11.31,57.52-9.2,43.54,37.08,57.84-60.1,14.94-97.28-54.09-51.92-26.7,17.55-44.05,21.11-56.82,19.61Z"/>
  <path class="cls-1" d="m158.37,175.7c-29.24,27.83-41.09,33.75-60.75,39.72-2.76.84-13.5,4.4-23.26-.78C36.37,194.44,15.95,95.69,29.82,55.7c17.78-51.26,45.8-12.07,71.84-18.27C77.48,27.51,67.02-16.22,28.3,6.43-11.15,29.5-13.66,143.68,48.45,220.24c18.16,22.38,47.7,21.19,71.29,1.31,16.64-14.02,31.21-33.6,38.63-45.86Z"/>
  <g>
    <path class="cls-1" d="m95.31,89.93v11.1h-23.16v11.99h17.33v10.77h-17.33v23h-13.85v-56.85h37.01Z"/>
    <path class="cls-1" d="m139.61,93.49c4.48,2.38,7.95,5.71,10.41,10,2.46,4.29,3.68,9.25,3.68,14.86s-1.23,10.5-3.68,14.82c-2.46,4.32-5.94,7.67-10.45,10.04-4.51,2.38-9.73,3.56-15.67,3.56h-21.3v-56.85h21.3c5.99,0,11.23,1.19,15.71,3.56Zm-4.37,37.01c2.92-2.86,4.37-6.91,4.37-12.15s-1.46-9.31-4.37-12.23-6.99-4.37-12.23-4.37h-6.56v33.04h6.56c5.24,0,9.31-1.43,12.23-4.29Z"/>
    <path class="cls-1" d="m175.33,101.03v11.5h18.55v10.69h-18.55v12.47h20.98v11.1h-34.83v-56.85h34.83v11.1h-20.98Z"/>
  </g>
  <g>
    <path class="cls-1" d="m62.88,157.67v.81h-3.33v2.58h2.71v.81h-2.71v3.45h-1v-7.67h4.33Z"/>
    <path class="cls-1" d="m69.98,159.31v6.03h-1v-.89c-.19.31-.46.55-.8.72-.34.17-.72.26-1.13.26-.47,0-.89-.1-1.26-.29s-.67-.49-.89-.88c-.22-.39-.32-.86-.32-1.42v-3.53h.99v3.4c0,.59.15,1.05.45,1.37.3.32.71.48,1.23.48s.96-.17,1.27-.5c.31-.33.46-.81.46-1.44v-3.31h1Z"/>
    <path class="cls-1" d="m76.95,159.87c.45.44.68,1.08.68,1.92v3.55h-.99v-3.41c0-.6-.15-1.06-.45-1.38-.3-.32-.71-.48-1.23-.48s-.95.17-1.26.49c-.31.33-.47.81-.47,1.44v3.33h-1v-6.03h1v.86c.2-.31.47-.55.81-.71s.72-.25,1.13-.25c.73,0,1.33.22,1.78.67Z"/>
    <path class="cls-1" d="m79.82,160.68c.25-.47.59-.83,1.03-1.08.44-.26.92-.38,1.47-.38.47,0,.91.11,1.31.32.4.22.71.5.92.85v-3.19h1.01v8.14h-1.01v-1.13c-.2.36-.49.65-.88.89-.39.23-.84.35-1.36.35s-1.02-.13-1.46-.4c-.44-.26-.78-.63-1.03-1.11-.25-.48-.37-1.02-.37-1.63s.12-1.16.37-1.62Zm4.46.45c-.18-.34-.43-.6-.74-.78s-.65-.27-1.03-.27-.71.09-1.02.26c-.31.18-.55.43-.74.77-.18.34-.28.73-.28,1.19s.09.86.28,1.21c.18.34.43.6.74.78.31.18.65.27,1.02.27s.72-.09,1.03-.27.56-.44.74-.78c.18-.34.28-.74.28-1.19s-.09-.85-.28-1.19Z"/>
    <path class="cls-1" d="m87.8,160.68c.25-.47.59-.83,1.03-1.08.44-.26.92-.38,1.46-.38s.99.11,1.38.34.68.51.87.86v-1.1h1.01v6.03h-1.01v-1.12c-.2.35-.49.64-.89.88-.39.23-.85.35-1.37.35s-1.02-.13-1.45-.4-.77-.63-1.02-1.11c-.25-.48-.37-1.02-.37-1.63s.12-1.16.37-1.62Zm4.46.45c-.18-.34-.43-.6-.74-.78s-.65-.27-1.03-.27-.71.09-1.02.26c-.31.18-.55.43-.74.77-.18.34-.28.73-.28,1.19s.09.86.28,1.21c.18.34.43.6.74.78.31.18.65.27,1.02.27s.72-.09,1.03-.27.56-.44.74-.78c.18-.34.28-.74.28-1.19s-.09-.85-.28-1.19Z"/>
    <path class="cls-1" d="m95.79,160.68c.25-.47.6-.83,1.04-1.08.44-.26.95-.38,1.52-.38.74,0,1.35.18,1.83.54s.8.86.95,1.5h-1.08c-.1-.37-.3-.66-.6-.87s-.67-.32-1.11-.32c-.57,0-1.03.2-1.39.59-.35.39-.53.95-.53,1.67s.18,1.29.53,1.68c.35.4.81.59,1.39.59.44,0,.81-.1,1.1-.31s.5-.5.61-.88h1.08c-.16.62-.48,1.11-.97,1.48-.48.37-1.09.55-1.81.55-.57,0-1.08-.13-1.52-.38-.44-.26-.79-.62-1.04-1.09-.25-.47-.37-1.02-.37-1.65s.12-1.17.37-1.63Z"/>
    <path class="cls-1" d="m103.05,158.14c-.13-.13-.2-.29-.2-.48s.07-.35.2-.48.29-.2.48-.2.34.07.47.2c.13.13.19.29.19.48s-.06.35-.19.48c-.13.13-.28.2-.47.2s-.35-.07-.48-.2Zm.97,1.18v6.03h-1v-6.03h1Z"/>
    <path class="cls-1" d="m107.37,165.05c-.46-.26-.82-.62-1.08-1.09-.26-.47-.39-1.02-.39-1.64s.13-1.16.4-1.63c.27-.47.63-.84,1.09-1.09.46-.25.98-.38,1.55-.38s1.09.13,1.55.38c.46.25.83.61,1.09,1.08.27.47.4,1.02.4,1.64s-.14,1.17-.41,1.64c-.27.47-.65.84-1.12,1.09-.47.26-.99.38-1.56.38s-1.08-.13-1.53-.38Zm2.55-.75c.31-.17.57-.42.76-.76.19-.34.29-.75.29-1.23s-.1-.89-.29-1.23-.44-.59-.75-.75c-.31-.17-.64-.25-1-.25s-.7.08-1.01.25c-.3.17-.55.42-.73.75-.18.34-.28.75-.28,1.23s.09.91.27,1.24c.18.34.42.59.72.75.3.17.63.25.99.25s.7-.08,1.01-.25Zm.11-6.78l-2.34,1.25v-.75l2.34-1.38v.87Z"/>
    <path class="cls-1" d="m118.58,159.87c.45.44.68,1.08.68,1.92v3.55h-.99v-3.41c0-.6-.15-1.06-.45-1.38-.3-.32-.71-.48-1.23-.48s-.95.17-1.26.49c-.31.33-.47.81-.47,1.44v3.33h-1v-6.03h1v.86c.2-.31.47-.55.81-.71s.72-.25,1.13-.25c.73,0,1.33.22,1.78.67Z"/>
    <path class="cls-1" d="m129.5,158.14c.61.31,1.08.76,1.41,1.34.33.58.49,1.26.49,2.05s-.16,1.46-.49,2.04c-.33.58-.8,1.02-1.41,1.32-.61.3-1.34.46-2.17.46h-2.39v-7.67h2.39c.84,0,1.56.16,2.17.47Zm.09,5.59c.52-.52.78-1.26.78-2.21s-.26-1.7-.79-2.23-1.28-.8-2.26-.8h-1.39v6.03h1.39c.99,0,1.75-.26,2.27-.79Z"/>
    <path class="cls-1" d="m138.73,162.7h-4.82c.04.59.24,1.06.61,1.39.37.33.82.5,1.35.5.43,0,.79-.1,1.08-.3.29-.2.49-.47.61-.81h1.08c-.16.58-.48,1.05-.97,1.41-.48.36-1.08.54-1.8.54-.57,0-1.08-.13-1.53-.38-.45-.26-.81-.62-1.06-1.09-.26-.47-.39-1.02-.39-1.64s.12-1.17.37-1.64c.25-.47.6-.83,1.05-1.08.45-.25.97-.38,1.56-.38s1.08.12,1.52.37c.44.25.78.59,1.02,1.03s.36.93.36,1.48c0,.19-.01.39-.03.61Zm-1.25-1.8c-.17-.28-.4-.48-.69-.63-.29-.14-.61-.21-.96-.21-.51,0-.94.16-1.29.48s-.56.77-.61,1.34h3.81c0-.38-.08-.71-.25-.98Z"/>
    <path class="cls-1" d="m145.35,159.87c.45.44.68,1.08.68,1.92v3.55h-.99v-3.41c0-.6-.15-1.06-.45-1.38-.3-.32-.71-.48-1.23-.48s-.95.17-1.26.49c-.31.33-.47.81-.47,1.44v3.33h-1v-6.03h1v.86c.2-.31.47-.55.81-.71s.72-.25,1.13-.25c.73,0,1.33.22,1.78.67Z"/>
    <path class="cls-1" d="m149.45,160.14v3.55c0,.29.06.5.19.62s.34.18.65.18h.74v.85h-.9c-.56,0-.98-.13-1.25-.38-.28-.26-.42-.68-.42-1.27v-3.55h-.78v-.83h.78v-1.52h1v1.52h1.57v.83h-1.57Z"/>
    <path class="cls-1" d="m152.78,160.68c.25-.47.59-.83,1.03-1.08.44-.26.92-.38,1.46-.38s.99.11,1.38.34.68.51.87.86v-1.1h1.01v6.03h-1.01v-1.12c-.2.35-.49.64-.89.88-.39.23-.85.35-1.37.35s-1.02-.13-1.45-.4-.77-.63-1.02-1.11c-.25-.48-.37-1.02-.37-1.63s.12-1.16.37-1.62Zm4.46.45c-.18-.34-.43-.6-.74-.78s-.65-.27-1.03-.27-.71.09-1.02.26c-.31.18-.55.43-.74.77-.18.34-.28.73-.28,1.19s.09.86.28,1.21c.18.34.43.6.74.78.31.18.65.27,1.02.27s.72-.09,1.03-.27.56-.44.74-.78c.18-.34.28-.74.28-1.19s-.09-.85-.28-1.19Z"/>
    <path class="cls-1" d="m161.77,157.2v8.14h-1v-8.14h1Z"/>
    <path class="cls-1" d="m168.51,158.49v2.56h2.79v.83h-2.79v2.64h3.12v.83h-4.12v-7.68h4.12v.83h-3.12Z"/>
    <path class="cls-1" d="m174.59,165.2c-.37-.16-.66-.38-.87-.66-.21-.28-.33-.61-.35-.97h1.03c.03.3.17.55.42.74.25.19.58.29,1,.29.38,0,.68-.08.9-.25s.33-.38.33-.64-.12-.46-.35-.59c-.23-.13-.6-.25-1.09-.38-.45-.12-.81-.24-1.09-.36s-.52-.3-.73-.54c-.2-.24-.3-.55-.3-.94,0-.31.09-.59.28-.85s.44-.46.78-.61c.34-.15.72-.23,1.15-.23.67,0,1.21.17,1.62.51.41.34.63.8.66,1.39h-1c-.02-.31-.15-.57-.38-.76-.23-.19-.54-.29-.93-.29-.36,0-.65.08-.86.23s-.32.36-.32.6c0,.2.06.36.19.49.13.13.29.23.48.31s.46.16.81.26c.43.12.78.23,1.06.35.27.11.5.28.7.51.19.23.29.52.3.89,0,.33-.09.63-.27.89-.18.26-.44.47-.78.62-.33.15-.72.23-1.15.23-.46,0-.88-.08-1.24-.24Z"/>
    <path class="cls-1" d="m181.88,159.56c.39-.23.85-.35,1.37-.35s1.02.13,1.46.38.78.62,1.03,1.08.37,1.01.37,1.62-.12,1.15-.37,1.63-.59.85-1.03,1.11-.92.4-1.46.4-.97-.12-1.36-.35c-.39-.23-.69-.52-.9-.86v3.97h-1v-8.89h1v1.11c.2-.34.49-.63.89-.86Zm2.93,1.56c-.18-.34-.43-.59-.74-.77-.31-.18-.66-.26-1.03-.26s-.71.09-1.02.27c-.31.18-.56.44-.75.78-.19.34-.28.73-.28,1.18s.09.85.28,1.19c.19.34.44.6.75.78.31.18.65.27,1.02.27s.72-.09,1.03-.27c.31-.18.56-.44.74-.78.18-.34.28-.74.28-1.21s-.09-.85-.28-1.19Z"/>
    <path class="cls-1" d="m187.98,160.68c.25-.47.59-.83,1.03-1.08.44-.26.92-.38,1.46-.38s.99.11,1.38.34.68.51.87.86v-1.1h1.01v6.03h-1.01v-1.12c-.2.35-.49.64-.89.88-.39.23-.85.35-1.37.35s-1.02-.13-1.45-.4-.77-.63-1.02-1.11c-.25-.48-.37-1.02-.37-1.63s.12-1.16.37-1.62Zm4.46.45c-.18-.34-.43-.6-.74-.78s-.65-.27-1.03-.27-.71.09-1.02.26c-.31.18-.55.43-.74.77-.18.34-.28.73-.28,1.19s.09.86.28,1.21c.18.34.43.6.74.78.31.18.65.27,1.02.27s.72-.09,1.03-.27.56-.44.74-.78c.18-.34.28-.74.28-1.19s-.09-.85-.28-1.19Z"/>
    <path class="cls-1" d="m200.68,159.87c.45.44.68,1.08.68,1.92v3.55h-.99v-3.41c0-.6-.15-1.06-.45-1.38-.3-.32-.71-.48-1.23-.48s-.95.17-1.26.49c-.31.33-.47.81-.47,1.44v3.33h-1v-6.03h1v.86c.2-.31.47-.55.81-.71s.72-.25,1.13-.25c.73,0,1.33.22,1.78.67Zm-3.27-2.06c.19-.2.44-.3.73-.3.14,0,.26.02.36.07.1.05.22.12.36.2.1.07.19.13.27.17.08.04.17.06.26.06.12,0,.23-.04.32-.12.09-.08.14-.2.17-.35h.57c-.04.37-.17.65-.36.85-.2.2-.44.3-.74.3-.14,0-.26-.02-.37-.07s-.23-.12-.36-.21c-.12-.07-.21-.13-.28-.17-.07-.04-.15-.05-.25-.05-.12,0-.23.04-.31.12-.08.08-.14.2-.16.36h-.58c.05-.37.17-.66.37-.86Z"/>
    <path class="cls-1" d="m204.65,165.05c-.46-.26-.82-.62-1.08-1.09-.26-.47-.39-1.02-.39-1.64s.13-1.16.4-1.63c.27-.47.63-.84,1.09-1.09.46-.25.98-.38,1.55-.38s1.09.13,1.55.38c.46.25.83.61,1.09,1.08.27.47.4,1.02.4,1.64s-.14,1.17-.41,1.64c-.27.47-.65.84-1.12,1.09-.47.26-.99.38-1.56.38s-1.08-.13-1.53-.38Zm2.55-.75c.31-.17.57-.42.76-.76.19-.34.29-.75.29-1.23s-.1-.89-.29-1.23-.44-.59-.75-.75c-.31-.17-.64-.25-1-.25s-.7.08-1.01.25c-.3.17-.55.42-.73.75-.18.34-.28.75-.28,1.23s.09.91.27,1.24c.18.34.42.59.72.75.3.17.63.25.99.25s.7-.08,1.01-.25Z"/>
    <path class="cls-1" d="m212.14,157.2v8.14h-1v-8.14h1Z"/>
    <path class="cls-1" d="m214.4,160.68c.25-.47.59-.83,1.03-1.08.44-.26.92-.38,1.46-.38s.99.11,1.38.34.68.51.87.86v-1.1h1.01v6.03h-1.01v-1.12c-.2.35-.49.64-.89.88-.39.23-.85.35-1.37.35s-1.02-.13-1.45-.4-.77-.63-1.02-1.11c-.25-.48-.37-1.02-.37-1.63s.12-1.16.37-1.62Zm4.46.45c-.18-.34-.43-.6-.74-.78s-.65-.27-1.03-.27-.71.09-1.02.26c-.31.18-.55.43-.74.77-.18.34-.28.73-.28,1.19s.09.86.28,1.21c.18.34.43.6.74.78.31.18.65.27,1.02.27s.72-.09,1.03-.27.56-.44.74-.78c.18-.34.28-.74.28-1.19s-.09-.85-.28-1.19Z"/>
  </g>
  <path class="cls-2" d="m141.54,212c13.97,20.32,27.39,34.76,55.88-37.28h0c-23.26,29.74-29.71,43.04-56.21,36.76"/>
</svg>