<svg id="professional" xmlns="http://www.w3.org/2000/svg" width="25" height="26" viewBox="0 0 25 26">
  <rect id="spacer" width="25" height="26" fill="none"/>
  <g id="scraper" transform="translate(6.25 2.572)">
    <path id="Path_7150" data-name="Path 7150" d="M3.716,8.91H2.264a.82.82,0,0,0-.837.8V20.027a.82.82,0,0,0,.837.8H3.716a.819.819,0,0,0,.836-.8V9.71a.819.819,0,0,0-.836-.8" transform="translate(0.059 -0.746)" fill="#333"/>
    <path id="Path_7151" data-name="Path 7151" d="M.656,2.494A2.711,2.711,0,0,0,.765,6.148l1.32,1.374a1.6,1.6,0,0,1,.445,1.117v.9H3.571v-.9a2.7,2.7,0,0,0-.75-1.883L1.5,5.382a1.62,1.62,0,0,1-.078-2.156,2.352,2.352,0,0,1,3.053-.376l.582-.9a3.381,3.381,0,0,0-4.4.541" transform="translate(0 -1.374)" fill="#333"/>
  </g>
  <g id="mirror" transform="translate(12.51 1.083)">
    <path id="Path_7152" data-name="Path 7152" d="M14.087,4.2A4.126,4.126,0,0,0,10.049,0,4.126,4.126,0,0,0,6.01,4.2,4.139,4.139,0,0,0,9.528,8.345V9.653H9.322a.854.854,0,0,0-.836.871V20.787a.853.853,0,0,0,.836.87h1.451a.854.854,0,0,0,.837-.87V10.524a.855.855,0,0,0-.837-.871h-.2V8.345A4.139,4.139,0,0,0,14.087,4.2m-7.035,0a3.063,3.063,0,0,1,3-3.117,3.063,3.063,0,0,1,3,3.117,3.063,3.063,0,0,1-3,3.117,3.063,3.063,0,0,1-3-3.117" transform="translate(-6.01)" fill="#333"/>
    <path id="Path_7154" data-name="Path 7154" d="M8.628,4.165a.507.507,0,0,0-.736,0,.558.558,0,0,0,0,.766L8.984,6.069a.508.508,0,0,0,.736,0,.558.558,0,0,0,0-.766Z" transform="translate(-3.7 -1.833)" fill="#333"/>
  </g>
</svg>